<?xml version="1.0" encoding="utf-8"?>
<!-- Generator: Adobe Illustrator 24.3.0, SVG Export Plug-In . SVG Version: 6.00 Build 0)  -->
<svg version="1.1" id="Layer_1" xmlns="http://www.w3.org/2000/svg" xmlns:xlink="http://www.w3.org/1999/xlink" x="0px" y="0px"
	 viewBox="0 0 1600 1000" enable-background="new 0 0 1600 1000" xml:space="preserve">
<path fill-rule="evenodd" clip-rule="evenodd" fill="#272727" d="M1599,998.8c-19.2-19.2-55.4-55.4-55.4-55.4
	c-18.9-18.9-56.6-56.6-56.6-56.6c-18.9-18.9-56.6-56.6-56.6-56.6c-18.9-18.9-56.6-56.6-56.6-56.6c-18.9-18.9-56.6-56.6-56.6-56.6
	c-18.9-18.9-56.6-56.6-56.6-56.6c-18.9-18.9-56.6-56.6-56.6-56.6c-18.9-18.9-56.6-56.6-56.6-56.6c-18.9-18.9-56.6-56.6-56.6-56.6
	c-18.9-18.9-56.6-56.6-56.6-56.6c-18.9-18.9-56.6-56.6-56.6-56.6c-18.9-18.9-56.6-56.6-56.6-56.6c-18.9-18.9-56.6-56.6-56.6-56.6
	c-18.9-18.9-56.6-56.6-56.6-56.6c-18.9-18.9-56.6-56.6-56.6-56.6c-18.9-18.9-56.6-56.6-56.6-56.6c-18.9-18.9-56.6-56.6-56.6-56.6
	c-10.2-10.2-26-26-38.3-38.3h-1.4c13.3,13.3,30.5,30.5,38.3,38.3c-18.6,18.6-55.9,55.9-55.9,55.9c-19.1-19.1-55.9-55.9-55.9-55.9
	s21-21,38.3-38.3h-1.4c-17.9,17.9-37.6,37.6-37.6,37.6C514.4,27.4,499.1,12,487.1,0h-1.4c13.3,13.3,30.5,30.5,38.3,38.3
	c-18.6,18.6-55.9,55.9-55.9,55.9c-19.1-19.1-55.9-55.9-55.9-55.9s21-21,38.3-38.3h-1.4c-17.9,17.9-37.6,37.6-37.6,37.6
	C401.3,27.4,385.9,12,373.9,0h-1.4c13.3,13.3,30.5,30.5,38.3,38.3C392.2,57,355,94.2,355,94.2c-19.1-19.1-55.9-55.9-55.9-55.9
	s21-21,38.3-38.3H336c-17.9,17.9-37.6,37.6-37.6,37.6C288.2,27.4,272.8,12,260.8,0h-1.4c13.3,13.3,30.5,30.5,38.3,38.3
	c-18.6,18.6-55.9,55.9-55.9,55.9C222.8,75.1,186,38.3,186,38.3s21-21,38.3-38.3h-1.4c-17.9,17.9-37.6,37.6-37.6,37.6
	C175,27.4,159.7,12,147.6,0h-1.4c13.3,13.3,30.5,30.5,38.3,38.3c-18.6,18.6-55.9,55.9-55.9,55.9c-19.1-19.1-55.9-55.9-55.9-55.9
	s21-21,38.3-38.3h-1.4C91.9,17.9,72.1,37.6,72.1,37.6C61.9,27.4,46.5,12,34.5,0h-1.4c13.3,13.3,30.5,30.5,38.3,38.3
	C52.8,57,15.6,94.2,15.6,94.2C11.1,89.7,5.7,84.3,0,78.6V80c6,6,11.4,11.4,14.9,14.9c-4.2,4.2-9.4,9.4-14.9,14.9v1.4
	c6.2-6.2,11.8-11.8,15.6-15.6c0,0,42.2,42.2,55.9,55.9c-18.6,18.6-55.9,55.9-55.9,55.9c-4.5-4.5-9.9-9.9-15.6-15.6v1.4
	c6,6,11.4,11.4,14.9,14.9c-4.2,4.2-9.4,9.4-14.9,14.9v1.4c6.2-6.2,11.8-11.8,15.6-15.6c0,0,42.2,42.2,55.9,55.9
	c-18.6,18.6-55.9,55.9-55.9,55.9c-4.5-4.5-9.9-9.9-15.6-15.6v1.4c6,6,11.4,11.4,14.9,14.9c-4.2,4.2-9.4,9.4-14.9,14.9v1.4
	c6.2-6.2,11.8-11.8,15.6-15.6c0,0,42.2,42.2,55.9,55.9c-18.6,18.6-55.9,55.9-55.9,55.9c-4.5-4.5-9.9-9.9-15.6-15.6v1.4
	c6,6,11.4,11.4,14.9,14.9c-4.2,4.2-9.4,9.4-14.9,14.9v1.4c6.2-6.2,11.8-11.8,15.6-15.6c0,0,42.2,42.2,55.9,55.9
	c-18.6,18.6-55.9,55.9-55.9,55.9c-4.5-4.5-9.9-9.9-15.6-15.6v1.4c6,6,11.4,11.4,14.9,14.9c-4.2,4.2-9.4,9.4-14.9,14.9v1.4
	c6.2-6.2,11.8-11.8,15.6-15.6c0,0,42.2,42.2,55.9,55.9c-18.6,18.6-55.9,55.9-55.9,55.9c-4.5-4.5-9.9-9.9-15.6-15.6v1.4
	c6,6,11.4,11.4,14.9,14.9c-4.2,4.2-9.4,9.4-14.9,14.9v1.4c6.2-6.2,11.8-11.8,15.6-15.6c0,0,42.2,42.2,55.9,55.9
	C52.8,735.8,15.6,773,15.6,773c-4.5-4.5-9.9-9.9-15.6-15.6v1.4c6,6,11.4,11.4,14.9,14.9c-4.2,4.2-9.4,9.4-14.9,14.9v1.4
	c6.2-6.2,11.8-11.8,15.6-15.6c0,0,42.2,42.2,55.9,55.9c-18.6,18.6-55.9,55.9-55.9,55.9c-4.5-4.5-9.9-9.9-15.6-15.6v1.4
	c6,6,11.4,11.4,14.9,14.9c-4.2,4.2-9.4,9.4-14.9,14.9v1.4c6.2-6.2,11.8-11.8,15.6-15.6c0,0,42.2,42.2,55.9,55.9
	c-18.6,18.6-55.9,55.9-55.9,55.9c-4.5-4.5-9.9-9.9-15.6-15.6v1.4c6,6,11.4,11.4,14.9,14.9h1.4c0,0,41.3-41.3,55.9-55.9
	c0,0,42.2,42.2,55.9,55.9h1.4c0,0,41.3-41.3,55.9-55.9c0,0,42.2,42.2,55.9,55.9h1.4c0,0,41.3-41.3,55.9-55.9
	c0,0,42.2,42.2,55.9,55.9h1.4c0,0,41.3-41.3,55.9-55.9c0,0,42.2,42.2,55.9,55.9h1.4c0,0,41.3-41.3,55.9-55.9
	c0,0,42.2,42.2,55.9,55.9h1.4c0,0,41.3-41.3,55.9-55.9c0,0,42.2,42.2,55.9,55.9h1.4c0,0,41.3-41.3,55.9-55.9
	c0,0,42.2,42.2,55.9,55.9h1.4c0,0,41.3-41.3,55.9-55.9c0,0,42.2,42.2,55.9,55.9h1.4c0,0,41.3-41.3,55.9-55.9
	c0,0,42.2,42.2,55.9,55.9h1.4c0,0,41.3-41.3,55.9-55.9c0,0,42.2,42.2,55.9,55.9h1.4c0,0,41.3-41.3,55.9-55.9
	c0,0,42.2,42.2,55.9,55.9h1.4c0,0,41.3-41.3,55.9-55.9c0,0,42.2,42.2,55.9,55.9h1.4c0,0,41.3-41.3,55.9-55.9
	c0,0,42.2,42.2,55.9,55.9h1.4c0,0,41.3-41.3,55.9-55.9c0,0,42.2,42.2,55.9,55.9h0.2V998.8z M1429.1,830.3
	c-18.6,18.6-55.9,55.9-55.9,55.9c-19.1-19.1-55.9-55.9-55.9-55.9s41.3-41.3,55.9-55.9C1373.2,774.4,1415.4,816.6,1429.1,830.3z
	 M1372.5,773.7c-18.6,18.6-55.9,55.9-55.9,55.9c-19.1-19.1-55.9-55.9-55.9-55.9s41.3-41.3,55.9-55.9
	C1316.6,717.9,1358.8,760.1,1372.5,773.7z M1090.4,716.5c-19.1-19.1-55.9-55.9-55.9-55.9s41.3-41.3,55.9-55.9
	c0,0,42.2,42.2,55.9,55.9C1127.6,679.2,1090.4,716.5,1090.4,716.5z M1146.9,661.3c0,0,42.2,42.2,55.9,55.9
	c-18.6,18.6-55.9,55.9-55.9,55.9c-19.1-19.1-55.9-55.9-55.9-55.9S1132.4,675.9,1146.9,661.3z M864.1,603.3
	c-19.1-19.1-55.9-55.9-55.9-55.9s41.3-41.3,55.9-55.9c0,0,42.2,42.2,55.9,55.9C901.3,566.1,864.1,603.3,864.1,603.3z M920.7,548.2
	c0,0,42.2,42.2,55.9,55.9c-18.6,18.6-55.9,55.9-55.9,55.9c-19.1-19.1-55.9-55.9-55.9-55.9S906.1,562.7,920.7,548.2z M637.8,490.2
	c-19.1-19.1-55.9-55.9-55.9-55.9s41.3-41.3,55.9-55.9c0,0,42.2,42.2,55.9,55.9C675.1,452.9,637.8,490.2,637.8,490.2z M694.4,435
	c0,0,42.2,42.2,55.9,55.9c-18.6,18.6-55.9,55.9-55.9,55.9c-19.1-19.1-55.9-55.9-55.9-55.9S679.8,449.6,694.4,435z M637.1,490.9
	c-18.6,18.6-55.9,55.9-55.9,55.9c-19.1-19.1-55.9-55.9-55.9-55.9s41.3-41.3,55.9-55.9C581.3,435,623.4,477.2,637.1,490.9z
	 M524.7,490.2c-19.1-19.1-55.9-55.9-55.9-55.9s41.3-41.3,55.9-55.9c0,0,42.2,42.2,55.9,55.9C561.9,452.9,524.7,490.2,524.7,490.2z
	 M524,490.9c-18.6,18.6-55.9,55.9-55.9,55.9c-19.1-19.1-55.9-55.9-55.9-55.9s41.3-41.3,55.9-55.9C468.1,435,510.3,477.2,524,490.9z
	 M411.5,490.2c-19.1-19.1-55.9-55.9-55.9-55.9s41.3-41.3,55.9-55.9c0,0,42.2,42.2,55.9,55.9C448.8,452.9,411.5,490.2,411.5,490.2z
	 M410.8,490.9c-18.6,18.6-55.9,55.9-55.9,55.9c-19.1-19.1-55.9-55.9-55.9-55.9s41.3-41.3,55.9-55.9C355,435,397.2,477.2,410.8,490.9
	z M298.4,490.2c-19.1-19.1-55.9-55.9-55.9-55.9s41.3-41.3,55.9-55.9c0,0,42.2,42.2,55.9,55.9C335.7,452.9,298.4,490.2,298.4,490.2z
	 M297.7,490.9c-18.6,18.6-55.9,55.9-55.9,55.9c-19.1-19.1-55.9-55.9-55.9-55.9s41.3-41.3,55.9-55.9C241.8,435,284,477.2,297.7,490.9
	z M297.7,604c-18.6,18.6-55.9,55.9-55.9,55.9C222.8,640.8,186,604,186,604s41.3-41.3,55.9-55.9C241.8,548.2,284,590.4,297.7,604z
	 M242.5,547.5c0,0,41.3-41.3,55.9-55.9c0,0,42.2,42.2,55.9,55.9c-18.6,18.6-55.9,55.9-55.9,55.9
	C279.3,584.2,242.5,547.5,242.5,547.5z M355,548.2c0,0,42.2,42.2,55.9,55.9c-18.6,18.6-55.9,55.9-55.9,55.9
	c-19.1-19.1-55.9-55.9-55.9-55.9S340.4,562.7,355,548.2z M355.7,547.5c0,0,41.3-41.3,55.9-55.9c0,0,42.2,42.2,55.9,55.9
	c-18.6,18.6-55.9,55.9-55.9,55.9C392.5,584.2,355.7,547.5,355.7,547.5z M468.1,548.2c0,0,42.2,42.2,55.9,55.9
	c-18.6,18.6-55.9,55.9-55.9,55.9C449,640.8,412.3,604,412.3,604S453.5,562.7,468.1,548.2z M468.8,547.5c0,0,41.3-41.3,55.9-55.9
	c0,0,42.2,42.2,55.9,55.9c-18.6,18.6-55.9,55.9-55.9,55.9C505.6,584.2,468.8,547.5,468.8,547.5z M581.3,548.2
	c0,0,42.2,42.2,55.9,55.9c-18.6,18.6-55.9,55.9-55.9,55.9c-19.1-19.1-55.9-55.9-55.9-55.9S566.7,562.7,581.3,548.2z M582,547.5
	c0,0,41.3-41.3,55.9-55.9c0,0,42.2,42.2,55.9,55.9c-18.6,18.6-55.9,55.9-55.9,55.9C618.7,584.2,582,547.5,582,547.5z M694.4,548.2
	c0,0,42.2,42.2,55.9,55.9c-18.6,18.6-55.9,55.9-55.9,55.9c-19.1-19.1-55.9-55.9-55.9-55.9S679.8,562.7,694.4,548.2z M695.1,547.5
	c0,0,41.3-41.3,55.9-55.9c0,0,42.2,42.2,55.9,55.9c-18.6,18.6-55.9,55.9-55.9,55.9C731.9,584.2,695.1,547.5,695.1,547.5z
	 M807.5,548.2c0,0,42.2,42.2,55.9,55.9c-18.6,18.6-55.9,55.9-55.9,55.9c-19.1-19.1-55.9-55.9-55.9-55.9S792.9,562.7,807.5,548.2z
	 M807.5,546.7c-19.1-19.1-55.9-55.9-55.9-55.9s41.3-41.3,55.9-55.9c0,0,42.2,42.2,55.9,55.9C844.8,509.5,807.5,546.7,807.5,546.7z
	 M751,490.2c-19.1-19.1-55.9-55.9-55.9-55.9s41.3-41.3,55.9-55.9c0,0,42.2,42.2,55.9,55.9C788.2,452.9,751,490.2,751,490.2z
	 M694.4,433.6c-19.1-19.1-55.9-55.9-55.9-55.9s41.3-41.3,55.9-55.9c0,0,42.2,42.2,55.9,55.9C731.6,396.4,694.4,433.6,694.4,433.6z
	 M637.8,377C618.7,358,582,321.2,582,321.2s41.3-41.3,55.9-55.9c0,0,42.2,42.2,55.9,55.9C675.1,339.8,637.8,377,637.8,377z
	 M637.1,377.7c-18.6,18.6-55.9,55.9-55.9,55.9c-19.1-19.1-55.9-55.9-55.9-55.9s41.3-41.3,55.9-55.9
	C581.3,321.9,623.4,364.1,637.1,377.7z M524.7,377c-19.1-19.1-55.9-55.9-55.9-55.9s41.3-41.3,55.9-55.9c0,0,42.2,42.2,55.9,55.9
	C561.9,339.8,524.7,377,524.7,377z M524,377.7c-18.6,18.6-55.9,55.9-55.9,55.9c-19.1-19.1-55.9-55.9-55.9-55.9s41.3-41.3,55.9-55.9
	C468.1,321.9,510.3,364.1,524,377.7z M411.5,377c-19.1-19.1-55.9-55.9-55.9-55.9s41.3-41.3,55.9-55.9c0,0,42.2,42.2,55.9,55.9
	C448.8,339.8,411.5,377,411.5,377z M410.8,377.7c-18.6,18.6-55.9,55.9-55.9,55.9c-19.1-19.1-55.9-55.9-55.9-55.9
	s41.3-41.3,55.9-55.9C355,321.9,397.2,364.1,410.8,377.7z M298.4,377c-19.1-19.1-55.9-55.9-55.9-55.9s41.3-41.3,55.9-55.9
	c0,0,42.2,42.2,55.9,55.9C335.7,339.8,298.4,377,298.4,377z M297.7,377.7c-18.6,18.6-55.9,55.9-55.9,55.9
	c-19.1-19.1-55.9-55.9-55.9-55.9s41.3-41.3,55.9-55.9C241.8,321.9,284,364.1,297.7,377.7z M185.3,377
	c-19.1-19.1-55.9-55.9-55.9-55.9s41.3-41.3,55.9-55.9c0,0,42.2,42.2,55.9,55.9C222.5,339.8,185.3,377,185.3,377z M241.1,434.3
	c-18.6,18.6-55.9,55.9-55.9,55.9c-19.1-19.1-55.9-55.9-55.9-55.9s41.3-41.3,55.9-55.9C185.3,378.5,227.5,420.6,241.1,434.3z
	 M241.1,547.5c-18.6,18.6-55.9,55.9-55.9,55.9c-19.1-19.1-55.9-55.9-55.9-55.9s41.3-41.3,55.9-55.9
	C185.3,491.6,227.5,533.8,241.1,547.5z M241.1,660.6c-18.6,18.6-55.9,55.9-55.9,55.9c-19.1-19.1-55.9-55.9-55.9-55.9
	s41.3-41.3,55.9-55.9C185.3,604.7,227.5,646.9,241.1,660.6z M241.8,661.3c0,0,42.2,42.2,55.9,55.9c-18.6,18.6-55.9,55.9-55.9,55.9
	c-19.1-19.1-55.9-55.9-55.9-55.9S227.3,675.9,241.8,661.3z M242.5,660.6c0,0,41.3-41.3,55.9-55.9c0,0,42.2,42.2,55.9,55.9
	c-18.6,18.6-55.9,55.9-55.9,55.9C279.3,697.4,242.5,660.6,242.5,660.6z M355,661.3c0,0,42.2,42.2,55.9,55.9
	C392.2,735.8,355,773,355,773c-19.1-19.1-55.9-55.9-55.9-55.9S340.4,675.9,355,661.3z M355.7,660.6c0,0,41.3-41.3,55.9-55.9
	c0,0,42.2,42.2,55.9,55.9c-18.6,18.6-55.9,55.9-55.9,55.9C392.5,697.4,355.7,660.6,355.7,660.6z M468.1,661.3
	c0,0,42.2,42.2,55.9,55.9c-18.6,18.6-55.9,55.9-55.9,55.9c-19.1-19.1-55.9-55.9-55.9-55.9S453.5,675.9,468.1,661.3z M468.8,660.6
	c0,0,41.3-41.3,55.9-55.9c0,0,42.2,42.2,55.9,55.9c-18.6,18.6-55.9,55.9-55.9,55.9C505.6,697.4,468.8,660.6,468.8,660.6z
	 M581.3,661.3c0,0,42.2,42.2,55.9,55.9c-18.6,18.6-55.9,55.9-55.9,55.9c-19.1-19.1-55.9-55.9-55.9-55.9S566.7,675.9,581.3,661.3z
	 M582,660.6c0,0,41.3-41.3,55.9-55.9c0,0,42.2,42.2,55.9,55.9c-18.6,18.6-55.9,55.9-55.9,55.9C618.7,697.4,582,660.6,582,660.6z
	 M694.4,661.3c0,0,42.2,42.2,55.9,55.9c-18.6,18.6-55.9,55.9-55.9,55.9c-19.1-19.1-55.9-55.9-55.9-55.9S679.8,675.9,694.4,661.3z
	 M695.1,660.6c0,0,41.3-41.3,55.9-55.9c0,0,42.2,42.2,55.9,55.9c-18.6,18.6-55.9,55.9-55.9,55.9
	C731.9,697.4,695.1,660.6,695.1,660.6z M807.5,661.3c0,0,42.2,42.2,55.9,55.9c-18.6,18.6-55.9,55.9-55.9,55.9
	c-19.1-19.1-55.9-55.9-55.9-55.9S792.9,675.9,807.5,661.3z M808.2,660.6c0,0,41.3-41.3,55.9-55.9c0,0,42.2,42.2,55.9,55.9
	c-18.6,18.6-55.9,55.9-55.9,55.9C845,697.4,808.2,660.6,808.2,660.6z M920.7,661.3c0,0,42.2,42.2,55.9,55.9
	c-18.6,18.6-55.9,55.9-55.9,55.9c-19.1-19.1-55.9-55.9-55.9-55.9S906.1,675.9,920.7,661.3z M921.4,660.6c0,0,41.3-41.3,55.9-55.9
	c0,0,42.2,42.2,55.9,55.9c-18.6,18.6-55.9,55.9-55.9,55.9C958.2,697.4,921.4,660.6,921.4,660.6z M1033.8,661.3
	c0,0,42.2,42.2,55.9,55.9c-18.6,18.6-55.9,55.9-55.9,55.9c-19.1-19.1-55.9-55.9-55.9-55.9S1019.2,675.9,1033.8,661.3z M1033.8,659.9
	c-19.1-19.1-55.9-55.9-55.9-55.9s41.3-41.3,55.9-55.9c0,0,42.2,42.2,55.9,55.9C1071,622.6,1033.8,659.9,1033.8,659.9z M977.2,603.3
	c-19.1-19.1-55.9-55.9-55.9-55.9s41.3-41.3,55.9-55.9c0,0,42.2,42.2,55.9,55.9C1014.5,566.1,977.2,603.3,977.2,603.3z M920.7,546.7
	c-19.1-19.1-55.9-55.9-55.9-55.9s41.3-41.3,55.9-55.9c0,0,42.2,42.2,55.9,55.9C957.9,509.5,920.7,546.7,920.7,546.7z M864.1,490.2
	c-19.1-19.1-55.9-55.9-55.9-55.9s41.3-41.3,55.9-55.9c0,0,42.2,42.2,55.9,55.9C901.3,452.9,864.1,490.2,864.1,490.2z M807.5,433.6
	c-19.1-19.1-55.9-55.9-55.9-55.9s41.3-41.3,55.9-55.9c0,0,42.2,42.2,55.9,55.9C844.8,396.4,807.5,433.6,807.5,433.6z M751,377
	c-19.1-19.1-55.9-55.9-55.9-55.9s41.3-41.3,55.9-55.9c0,0,42.2,42.2,55.9,55.9C788.2,339.8,751,377,751,377z M694.4,320.5
	c-19.1-19.1-55.9-55.9-55.9-55.9s41.3-41.3,55.9-55.9c0,0,42.2,42.2,55.9,55.9C731.6,283.2,694.4,320.5,694.4,320.5z M637.8,263.9
	C618.7,244.8,582,208,582,208s41.3-41.3,55.9-55.9c0,0,42.2,42.2,55.9,55.9C675.1,226.7,637.8,263.9,637.8,263.9z M637.1,264.6
	c-18.6,18.6-55.9,55.9-55.9,55.9c-19.1-19.1-55.9-55.9-55.9-55.9s41.3-41.3,55.9-55.9C581.3,208.7,623.4,250.9,637.1,264.6z
	 M524.7,263.9c-19.1-19.1-55.9-55.9-55.9-55.9s41.3-41.3,55.9-55.9c0,0,42.2,42.2,55.9,55.9C561.9,226.7,524.7,263.9,524.7,263.9z
	 M524,264.6c-18.6,18.6-55.9,55.9-55.9,55.9c-19.1-19.1-55.9-55.9-55.9-55.9s41.3-41.3,55.9-55.9C468.1,208.7,510.3,250.9,524,264.6
	z M411.5,263.9c-19.1-19.1-55.9-55.9-55.9-55.9s41.3-41.3,55.9-55.9c0,0,42.2,42.2,55.9,55.9C448.8,226.7,411.5,263.9,411.5,263.9z
	 M410.8,264.6c-18.6,18.6-55.9,55.9-55.9,55.9c-19.1-19.1-55.9-55.9-55.9-55.9s41.3-41.3,55.9-55.9
	C355,208.7,397.2,250.9,410.8,264.6z M298.4,263.9c-19.1-19.1-55.9-55.9-55.9-55.9s41.3-41.3,55.9-55.9c0,0,42.2,42.2,55.9,55.9
	C335.7,226.7,298.4,263.9,298.4,263.9z M297.7,264.6c-18.6,18.6-55.9,55.9-55.9,55.9c-19.1-19.1-55.9-55.9-55.9-55.9
	s41.3-41.3,55.9-55.9C241.8,208.7,284,250.9,297.7,264.6z M185.3,263.9c-19.1-19.1-55.9-55.9-55.9-55.9s41.3-41.3,55.9-55.9
	c0,0,42.2,42.2,55.9,55.9C222.5,226.7,185.3,263.9,185.3,263.9z M184.6,264.6c-18.6,18.6-55.9,55.9-55.9,55.9
	c-19.1-19.1-55.9-55.9-55.9-55.9s41.3-41.3,55.9-55.9C128.7,208.7,170.9,250.9,184.6,264.6z M184.6,377.7
	c-18.6,18.6-55.9,55.9-55.9,55.9c-19.1-19.1-55.9-55.9-55.9-55.9s41.3-41.3,55.9-55.9C128.7,321.9,170.9,364.1,184.6,377.7z
	 M184.6,490.9c-18.6,18.6-55.9,55.9-55.9,55.9c-19.1-19.1-55.9-55.9-55.9-55.9s41.3-41.3,55.9-55.9
	C128.7,435,170.9,477.2,184.6,490.9z M184.6,604c-18.6,18.6-55.9,55.9-55.9,55.9C109.6,640.8,72.8,604,72.8,604s41.3-41.3,55.9-55.9
	C128.7,548.2,170.9,590.4,184.6,604z M184.6,717.2c-18.6,18.6-55.9,55.9-55.9,55.9c-19.1-19.1-55.9-55.9-55.9-55.9
	s41.3-41.3,55.9-55.9C128.7,661.3,170.9,703.5,184.6,717.2z M184.6,830.3c-18.6,18.6-55.9,55.9-55.9,55.9
	c-19.1-19.1-55.9-55.9-55.9-55.9s41.3-41.3,55.9-55.9C128.7,774.4,170.9,816.6,184.6,830.3z M129.4,773.7c0,0,41.3-41.3,55.9-55.9
	c0,0,42.2,42.2,55.9,55.9c-18.6,18.6-55.9,55.9-55.9,55.9C166.2,810.5,129.4,773.7,129.4,773.7z M241.8,774.4
	c0,0,42.2,42.2,55.9,55.9c-18.6,18.6-55.9,55.9-55.9,55.9c-19.1-19.1-55.9-55.9-55.9-55.9S227.3,789,241.8,774.4z M242.5,773.7
	c0,0,41.3-41.3,55.9-55.9c0,0,42.2,42.2,55.9,55.9c-18.6,18.6-55.9,55.9-55.9,55.9C279.3,810.5,242.5,773.7,242.5,773.7z M355,774.4
	c0,0,42.2,42.2,55.9,55.9c-18.6,18.6-55.9,55.9-55.9,55.9c-19.1-19.1-55.9-55.9-55.9-55.9S340.4,789,355,774.4z M355.7,773.7
	c0,0,41.3-41.3,55.9-55.9c0,0,42.2,42.2,55.9,55.9c-18.6,18.6-55.9,55.9-55.9,55.9C392.5,810.5,355.7,773.7,355.7,773.7z
	 M468.1,774.4c0,0,42.2,42.2,55.9,55.9c-18.6,18.6-55.9,55.9-55.9,55.9c-19.1-19.1-55.9-55.9-55.9-55.9S453.5,789,468.1,774.4z
	 M468.8,773.7c0,0,41.3-41.3,55.9-55.9c0,0,42.2,42.2,55.9,55.9c-18.6,18.6-55.9,55.9-55.9,55.9
	C505.6,810.5,468.8,773.7,468.8,773.7z M581.3,774.4c0,0,42.2,42.2,55.9,55.9c-18.6,18.6-55.9,55.9-55.9,55.9
	c-19.1-19.1-55.9-55.9-55.9-55.9S566.7,789,581.3,774.4z M582,773.7c0,0,41.3-41.3,55.9-55.9c0,0,42.2,42.2,55.9,55.9
	c-18.6,18.6-55.9,55.9-55.9,55.9C618.7,810.5,582,773.7,582,773.7z M694.4,774.4c0,0,42.2,42.2,55.9,55.9
	c-18.6,18.6-55.9,55.9-55.9,55.9c-19.1-19.1-55.9-55.9-55.9-55.9S679.8,789,694.4,774.4z M695.1,773.7c0,0,41.3-41.3,55.9-55.9
	c0,0,42.2,42.2,55.9,55.9c-18.6,18.6-55.9,55.9-55.9,55.9C731.9,810.5,695.1,773.7,695.1,773.7z M807.5,774.4
	c0,0,42.2,42.2,55.9,55.9c-18.6,18.6-55.9,55.9-55.9,55.9c-19.1-19.1-55.9-55.9-55.9-55.9S792.9,789,807.5,774.4z M808.2,773.7
	c0,0,41.3-41.3,55.9-55.9c0,0,42.2,42.2,55.9,55.9c-18.6,18.6-55.9,55.9-55.9,55.9C845,810.5,808.2,773.7,808.2,773.7z M920.7,774.4
	c0,0,42.2,42.2,55.9,55.9c-18.6,18.6-55.9,55.9-55.9,55.9c-19.1-19.1-55.9-55.9-55.9-55.9S906.1,789,920.7,774.4z M921.4,773.7
	c0,0,41.3-41.3,55.9-55.9c0,0,42.2,42.2,55.9,55.9c-18.6,18.6-55.9,55.9-55.9,55.9C958.2,810.5,921.4,773.7,921.4,773.7z
	 M1033.8,774.4c0,0,42.2,42.2,55.9,55.9c-18.6,18.6-55.9,55.9-55.9,55.9c-19.1-19.1-55.9-55.9-55.9-55.9S1019.2,789,1033.8,774.4z
	 M1034.5,773.7c0,0,41.3-41.3,55.9-55.9c0,0,42.2,42.2,55.9,55.9c-18.6,18.6-55.9,55.9-55.9,55.9
	C1071.3,810.5,1034.5,773.7,1034.5,773.7z M1146.9,774.4c0,0,42.2,42.2,55.9,55.9c-18.6,18.6-55.9,55.9-55.9,55.9
	c-19.1-19.1-55.9-55.9-55.9-55.9S1132.4,789,1146.9,774.4z M1147.6,773.7c0,0,41.3-41.3,55.9-55.9c0,0,42.2,42.2,55.9,55.9
	c-18.6,18.6-55.9,55.9-55.9,55.9C1184.4,810.5,1147.6,773.7,1147.6,773.7z M1260.1,774.4c0,0,42.2,42.2,55.9,55.9
	c-18.6,18.6-55.9,55.9-55.9,55.9c-19.1-19.1-55.9-55.9-55.9-55.9S1245.5,789,1260.1,774.4z M1315.9,717.2
	c-18.6,18.6-55.9,55.9-55.9,55.9c-19.1-19.1-55.9-55.9-55.9-55.9s41.3-41.3,55.9-55.9C1260.1,661.3,1302.3,703.5,1315.9,717.2z
	 M1259.4,660.6c-18.6,18.6-55.9,55.9-55.9,55.9c-19.1-19.1-55.9-55.9-55.9-55.9s41.3-41.3,55.9-55.9
	C1203.5,604.7,1245.7,646.9,1259.4,660.6z M1202.8,604c-18.6,18.6-55.9,55.9-55.9,55.9c-19.1-19.1-55.9-55.9-55.9-55.9
	s41.3-41.3,55.9-55.9C1146.9,548.2,1189.1,590.4,1202.8,604z M1146.2,547.5c-18.6,18.6-55.9,55.9-55.9,55.9
	c-19.1-19.1-55.9-55.9-55.9-55.9s41.3-41.3,55.9-55.9C1090.4,491.6,1132.6,533.8,1146.2,547.5z M1089.7,490.9
	c-18.6,18.6-55.9,55.9-55.9,55.9c-19.1-19.1-55.9-55.9-55.9-55.9s41.3-41.3,55.9-55.9C1033.8,435,1076,477.2,1089.7,490.9z
	 M1033.1,434.3c-18.6,18.6-55.9,55.9-55.9,55.9c-19.1-19.1-55.9-55.9-55.9-55.9s41.3-41.3,55.9-55.9
	C977.2,378.5,1019.4,420.6,1033.1,434.3z M976.5,377.7c-18.6,18.6-55.9,55.9-55.9,55.9c-19.1-19.1-55.9-55.9-55.9-55.9
	s41.3-41.3,55.9-55.9C920.7,321.9,962.9,364.1,976.5,377.7z M920,321.2c-18.6,18.6-55.9,55.9-55.9,55.9
	c-19.1-19.1-55.9-55.9-55.9-55.9s41.3-41.3,55.9-55.9C864.1,265.3,906.3,307.5,920,321.2z M863.4,264.6
	c-18.6,18.6-55.9,55.9-55.9,55.9c-19.1-19.1-55.9-55.9-55.9-55.9s41.3-41.3,55.9-55.9C807.5,208.7,849.7,250.9,863.4,264.6z
	 M806.8,208c-18.6,18.6-55.9,55.9-55.9,55.9c-19.1-19.1-55.9-55.9-55.9-55.9s41.3-41.3,55.9-55.9C751,152.2,793.2,194.4,806.8,208z
	 M750.3,151.5c-18.6,18.6-55.9,55.9-55.9,55.9c-19.1-19.1-55.9-55.9-55.9-55.9s41.3-41.3,55.9-55.9
	C694.4,95.6,736.6,137.8,750.3,151.5z M637.8,39c0,0,42.2,42.2,55.9,55.9c-18.6,18.6-55.9,55.9-55.9,55.9
	C618.7,131.7,582,94.9,582,94.9S623.2,53.6,637.8,39z M637.1,151.5c-18.6,18.6-55.9,55.9-55.9,55.9c-19.1-19.1-55.9-55.9-55.9-55.9
	s41.3-41.3,55.9-55.9C581.3,95.6,623.4,137.8,637.1,151.5z M524.7,39c0,0,42.2,42.2,55.9,55.9c-18.6,18.6-55.9,55.9-55.9,55.9
	c-19.1-19.1-55.9-55.9-55.9-55.9S510.1,53.6,524.7,39z M524,151.5c-18.6,18.6-55.9,55.9-55.9,55.9c-19.1-19.1-55.9-55.9-55.9-55.9
	s41.3-41.3,55.9-55.9C468.1,95.6,510.3,137.8,524,151.5z M411.5,39c0,0,42.2,42.2,55.9,55.9c-18.6,18.6-55.9,55.9-55.9,55.9
	c-19.1-19.1-55.9-55.9-55.9-55.9S397,53.6,411.5,39z M410.8,151.5c-18.6,18.6-55.9,55.9-55.9,55.9c-19.1-19.1-55.9-55.9-55.9-55.9
	s41.3-41.3,55.9-55.9C355,95.6,397.2,137.8,410.8,151.5z M298.4,39c0,0,42.2,42.2,55.9,55.9c-18.6,18.6-55.9,55.9-55.9,55.9
	c-19.1-19.1-55.9-55.9-55.9-55.9S283.8,53.6,298.4,39z M297.7,151.5c-18.6,18.6-55.9,55.9-55.9,55.9c-19.1-19.1-55.9-55.9-55.9-55.9
	s41.3-41.3,55.9-55.9C241.8,95.6,284,137.8,297.7,151.5z M185.3,39c0,0,42.2,42.2,55.9,55.9c-18.6,18.6-55.9,55.9-55.9,55.9
	c-19.1-19.1-55.9-55.9-55.9-55.9S170.7,53.6,185.3,39z M184.6,151.5c-18.6,18.6-55.9,55.9-55.9,55.9c-19.1-19.1-55.9-55.9-55.9-55.9
	s41.3-41.3,55.9-55.9C128.7,95.6,170.9,137.8,184.6,151.5z M16.3,94.9c0,0,41.3-41.3,55.9-55.9c0,0,42.2,42.2,55.9,55.9
	c-18.6,18.6-55.9,55.9-55.9,55.9C53.1,131.7,16.3,94.9,16.3,94.9z M16.3,208c0,0,41.3-41.3,55.9-55.9c0,0,42.2,42.2,55.9,55.9
	c-18.6,18.6-55.9,55.9-55.9,55.9C53.1,244.8,16.3,208,16.3,208z M16.3,321.2c0,0,41.3-41.3,55.9-55.9c0,0,42.2,42.2,55.9,55.9
	C109.4,339.8,72.1,377,72.1,377C53.1,358,16.3,321.2,16.3,321.2z M16.3,434.3c0,0,41.3-41.3,55.9-55.9c0,0,42.2,42.2,55.9,55.9
	c-18.6,18.6-55.9,55.9-55.9,55.9C53.1,471.1,16.3,434.3,16.3,434.3z M16.3,547.5c0,0,41.3-41.3,55.9-55.9c0,0,42.2,42.2,55.9,55.9
	c-18.6,18.6-55.9,55.9-55.9,55.9C53.1,584.2,16.3,547.5,16.3,547.5z M16.3,660.6c0,0,41.3-41.3,55.9-55.9c0,0,42.2,42.2,55.9,55.9
	c-18.6,18.6-55.9,55.9-55.9,55.9C53.1,697.4,16.3,660.6,16.3,660.6z M16.3,773.7c0,0,41.3-41.3,55.9-55.9c0,0,42.2,42.2,55.9,55.9
	c-18.6,18.6-55.9,55.9-55.9,55.9C53.1,810.5,16.3,773.7,16.3,773.7z M16.3,886.9c0,0,41.3-41.3,55.9-55.9c0,0,42.2,42.2,55.9,55.9
	c-18.6,18.6-55.9,55.9-55.9,55.9C53.1,923.7,16.3,886.9,16.3,886.9z M128.7,999.3c-19.1-19.1-55.9-55.9-55.9-55.9
	s41.3-41.3,55.9-55.9c0,0,42.2,42.2,55.9,55.9C165.9,962.1,128.7,999.3,128.7,999.3z M129.4,886.9c0,0,41.3-41.3,55.9-55.9
	c0,0,42.2,42.2,55.9,55.9c-18.6,18.6-55.9,55.9-55.9,55.9C166.2,923.7,129.4,886.9,129.4,886.9z M241.8,999.3
	c-19.1-19.1-55.9-55.9-55.9-55.9s41.3-41.3,55.9-55.9c0,0,42.2,42.2,55.9,55.9C279.1,962.1,241.8,999.3,241.8,999.3z M242.5,886.9
	c0,0,41.3-41.3,55.9-55.9c0,0,42.2,42.2,55.9,55.9c-18.6,18.6-55.9,55.9-55.9,55.9C279.3,923.7,242.5,886.9,242.5,886.9z M355,999.3
	c-19.1-19.1-55.9-55.9-55.9-55.9s41.3-41.3,55.9-55.9c0,0,42.2,42.2,55.9,55.9C392.2,962.1,355,999.3,355,999.3z M355.7,886.9
	c0,0,41.3-41.3,55.9-55.9c0,0,42.2,42.2,55.9,55.9c-18.6,18.6-55.9,55.9-55.9,55.9C392.5,923.7,355.7,886.9,355.7,886.9z
	 M468.1,999.3c-19.1-19.1-55.9-55.9-55.9-55.9s41.3-41.3,55.9-55.9c0,0,42.2,42.2,55.9,55.9C505.4,962.1,468.1,999.3,468.1,999.3z
	 M468.8,886.9c0,0,41.3-41.3,55.9-55.9c0,0,42.2,42.2,55.9,55.9c-18.6,18.6-55.9,55.9-55.9,55.9
	C505.6,923.7,468.8,886.9,468.8,886.9z M581.3,999.3c-19.1-19.1-55.9-55.9-55.9-55.9s41.3-41.3,55.9-55.9c0,0,42.2,42.2,55.9,55.9
	C618.5,962.1,581.3,999.3,581.3,999.3z M582,886.9c0,0,41.3-41.3,55.9-55.9c0,0,42.2,42.2,55.9,55.9c-18.6,18.6-55.9,55.9-55.9,55.9
	C618.7,923.7,582,886.9,582,886.9z M694.4,999.3c-19.1-19.1-55.9-55.9-55.9-55.9s41.3-41.3,55.9-55.9c0,0,42.2,42.2,55.9,55.9
	C731.6,962.1,694.4,999.3,694.4,999.3z M695.1,886.9c0,0,41.3-41.3,55.9-55.9c0,0,42.2,42.2,55.9,55.9
	c-18.6,18.6-55.9,55.9-55.9,55.9C731.9,923.7,695.1,886.9,695.1,886.9z M807.5,999.3c-19.1-19.1-55.9-55.9-55.9-55.9
	s41.3-41.3,55.9-55.9c0,0,42.2,42.2,55.9,55.9C844.8,962.1,807.5,999.3,807.5,999.3z M808.2,886.9c0,0,41.3-41.3,55.9-55.9
	c0,0,42.2,42.2,55.9,55.9c-18.6,18.6-55.9,55.9-55.9,55.9C845,923.7,808.2,886.9,808.2,886.9z M920.7,999.3
	c-19.1-19.1-55.9-55.9-55.9-55.9s41.3-41.3,55.9-55.9c0,0,42.2,42.2,55.9,55.9C957.9,962.1,920.7,999.3,920.7,999.3z M921.4,886.9
	c0,0,41.3-41.3,55.9-55.9c0,0,42.2,42.2,55.9,55.9c-18.6,18.6-55.9,55.9-55.9,55.9C958.2,923.7,921.4,886.9,921.4,886.9z
	 M1033.8,999.3c-19.1-19.1-55.9-55.9-55.9-55.9s41.3-41.3,55.9-55.9c0,0,42.2,42.2,55.9,55.9C1071,962,1033.8,999.3,1033.8,999.3z
	 M1034.5,886.9c0,0,41.3-41.3,55.9-55.9c0,0,42.2,42.2,55.9,55.9c-18.6,18.6-55.9,55.9-55.9,55.9
	C1071.3,923.7,1034.5,886.9,1034.5,886.9z M1146.9,999.3c-19.1-19.1-55.9-55.9-55.9-55.9s41.3-41.3,55.9-55.9
	c0,0,42.2,42.2,55.9,55.9C1184.2,962,1146.9,999.3,1146.9,999.3z M1147.6,886.9c0,0,41.3-41.3,55.9-55.9c0,0,42.2,42.2,55.9,55.9
	c-18.6,18.6-55.9,55.9-55.9,55.9C1184.4,923.7,1147.6,886.9,1147.6,886.9z M1260.1,999.3c-19.1-19.1-55.9-55.9-55.9-55.9
	s41.3-41.3,55.9-55.9c0,0,42.2,42.2,55.9,55.9C1297.3,962,1260.1,999.3,1260.1,999.3z M1260.8,886.9c0,0,41.3-41.3,55.9-55.9
	c0,0,42.2,42.2,55.9,55.9c-18.6,18.6-55.9,55.9-55.9,55.9C1297.6,923.7,1260.8,886.9,1260.8,886.9z M1373.2,999.3
	c-19.1-19.1-55.9-55.9-55.9-55.9s41.3-41.3,55.9-55.9c0,0,42.2,42.2,55.9,55.9C1410.5,962,1373.2,999.3,1373.2,999.3z M1373.9,886.9
	c0,0,41.3-41.3,55.9-55.9c0,0,42.2,42.2,55.9,55.9c-18.6,18.6-55.9,55.9-55.9,55.9C1410.7,923.7,1373.9,886.9,1373.9,886.9z
	 M1486.3,999.3c-19.1-19.1-55.9-55.9-55.9-55.9s41.3-41.3,55.9-55.9c0,0,42.2,42.2,55.9,55.9C1523.6,962,1486.3,999.3,1486.3,999.3z
	"/>
</svg>
